<?xml version="1.0" encoding="UTF-8"?>
<svg width="755.91" height="1500" version="1.1" viewBox="0 0 200 396.88" xmlns="http://www.w3.org/2000/svg">
<g transform="translate(0 99.875)" fill="#1425ba">
<rect transform="matrix(.7118 -.70239 .7118 .70239 0 0)" x="-83.488" y="63.024" width="312.4" height="8.9007" stroke="#fff" stroke-width="1.4365"/>
<rect transform="matrix(.7118 -.70239 .7118 .70239 0 0)" x="-99.91" y="20.503" width="312.4" height="8.9007" stroke="#fff" stroke-width="1.4365"/>
<rect transform="matrix(.7118 -.70239 .7118 .70239 0 0)" x="-95.122" y="-16.146" width="312.4" height="8.9007" stroke="#fff" stroke-width="1.4365"/>
<rect transform="matrix(.7118 -.70239 .7118 .70239 0 0)" x="-113.29" y="103.45" width="312.4" height="8.9007"/>
<rect transform="matrix(.7118 -.70239 .7118 .70239 0 0)" x="-150.98" y="144.86" width="312.4" height="8.9007"/>
<rect transform="matrix(.7118 -.70239 .7118 .70239 0 0)" x="-195.88" y="183.38" width="312.4" height="8.9007"/>
<rect transform="matrix(.7118 -.70239 .7118 .70239 0 0)" x="-215.61" y="216.92" width="312.4" height="8.9007"/>
<rect transform="matrix(.7118 -.70239 .7118 .70239 0 0)" x="-192.36" y="256.86" width="312.4" height="8.9007"/>
<rect transform="matrix(.7118 -.70239 .7118 .70239 0 0)" x="-211.02" y="329.68" width="312.4" height="8.9007"/>
<rect transform="matrix(.7118 -.70239 .7118 .70239 0 0)" x="-235.63" y="293.76" width="312.4" height="8.9007"/>
<rect transform="matrix(.7118 -.70239 .7118 .70239 0 0)" x="-80.404" y="-59.008" width="312.4" height="8.9007"/>
</g>
</svg>
